<svg xmlns="http://www.w3.org/2000/svg" width="56" height="62"><g clip-path="url(#clip-259)"><path fill="#fff" d="M42.297 41.737c8.667 1.283 10.447 4.104 12.081 5.674 1.634 1.57 1.587 8.735 1.587 8.735l-24.576.035 2.369-5.805-3.3-13.738c0 2.505-1.286 2.102-1.286 2.102H27.08c-1.636 0-1.54-1.267-1.472-1.657l.023-.122-.023.122-2.551 13.293 2.251 5.814-25.32.038s.44-7.248 2.074-8.817c1.634-1.57 3.293-4.39 11.96-5.674 8.668-1.284 8.038-5.865 8.322-5.723-.053-1.738-.22-4.175-.22-4.175s-3.543-1.919-4.872-5.722c-2.79-1.125-2.422-1.85-2.693-3.303 0 0-.847-5.898 1.037-5.775 0 0 1.29 0 .99-1.354-.1-2.256-.303-6.16-.154-7.666.15-1.502.859-5.564 4.003-6.165 3.145-.6 1.884-.3 2.933-.45 1.048-.15.749-.754 2.695-.754L30.107 0c1.946 0 3.194 2.889 4.242 3.039 1.049.149 1.057-.46 3.203-.058 3.145.602 2.708 4.739 2.858 6.243.15 1.503.25 5.408-.05 6.762-.3 1.354.637 1.203.637 1.203 2.246 0 1.138 5.775 1.138 5.775-.346 1.53-.499 1.713-2.59 3.04-1.33 3.803-4.925 6.136-4.925 6.136s.019 2.902.004 3.586c.059.27-.431 4.808 7.673 6.01zM29.011 62.012h-1.449l-2.254-5.822 6.081-.009z"/></g></svg>