<svg height="512" width="512" xmlns="http://www.w3.org/2000/svg"><path d="M272.5 268.5l-54.958 84.957-52.443 22.442C134.2 340.499 101.201 298.5 85.6 245.4L117 187l50.5-23.5c-.899 5.4-1.5 10.8-1.5 16.5 0 49.499 40.499 90 90 90 5.7 0 11.1-.601 16.5-1.5z" fill="#ffda2d"/><path d="M344.51 196.41c.9-5.37 1.49-10.74 1.49-16.41 0-49.46-40.44-89.94-89.89-90H256c-5.7 0-11.1.6-16.5 1.5l79.8-79.8c48.3 18 87 56.7 105 105l-79.8 79.8c0-.03.01-.06.01-.09z" fill="#80aef8"/><path d="M424.3 116.7L397 170l-52.5 26.5c0-.03.01-.06.01-.09.9-5.37 1.49-10.74 1.49-16.41 0-49.46-40.44-89.94-89.89-90h-.08V74.97L274 35l45.3-23.3c48.3 18 87 56.7 105 105z" fill="#4086f4"/><path d="M424.3 116.7l-79.8 79.799c-6.901 36.301-35.7 65.1-72.001 72.001h-.001l-86.872 86.871-20.528 20.527c5.101 5.7 9.6 10.802 14.401 16.201C212.5 429.6 241 463.999 241 497c0 8.399 6.599 15 15 15s15-6.601 15-15c0-33.001 28.5-67.4 61.5-104.9C378.701 340.199 436 275.4 436 180c0-22.2-3.9-43.5-11.7-63.3z" fill="#59c36a"/><path d="M424.3 116.7l-79.799 79.798v.001c-6.901 36.301-35.7 65.1-72.001 72.001h-.002l-16.467 16.466v227.028C264.417 511.976 271 505.388 271 497c0-33.001 28.5-67.4 61.5-104.9C378.701 340.199 436 275.4 436 180c0-22.2-3.9-43.5-11.7-63.3z" fill="#00a66c"/><path d="M256.031 284.969L272.5 268.5c-5.389.897-10.779 1.492-16.469 1.496z" fill="#fdbf00"/><path d="M319.3 11.7l-79.8 79.8c-18.3 3.6-34.501 12.299-47.1 24.901L146 97l-17.2-44.2C161.201 20.099 206.201 0 256 0c22.2 0 43.5 3.9 63.3 11.7z" fill="#4086f4"/><path d="M256.031 74.969L319.3 11.7C299.51 3.903 278.22.007 256.032.003v74.966z" fill="#4175df"/><path d="M192.4 116.4c-12.599 12.6-21.301 28.799-24.9 47.1l-81.9 81.9c-6-20.099-9.6-41.7-9.6-65.4 0-49.801 20.099-94.801 52.8-127.2z" fill="#f03800"/></svg>